<!--?xml version="1.0" encoding="utf-8"?-->
<!-- Generator: Adobe Illustrator 18.1.1, SVG Export Plug-In . SVG Version: 6.00 Build 0)  -->

<svg version="1.1" id="_x31_0" xmlns="http://www.w3.org/2000/svg" xmlns:xlink="http://www.w3.org/1999/xlink" x="0px" y="0px" viewBox="0 0 512 512" style="width: 256px; height: 256px; opacity: 1;" xml:space="preserve">
<style type="text/css">
	.st0{fill:#374149;}
</style>
<g>
	<path class="st0" d="M255.974,325.102c0,0,127.817-85.992,127.817-197.282C383.791,57.344,326.451,0,255.974,0
		c-70.48,0-127.82,57.344-127.82,127.82C128.154,239.11,255.974,325.102,255.974,325.102z M255.974,76.25
		c28.477,0,51.566,23.086,51.566,51.57c0,28.481-23.09,51.566-51.566,51.566c-28.484,0-51.57-23.086-51.57-51.566
		C204.404,99.336,227.49,76.25,255.974,76.25z" style="fill: rgb(75, 75, 75);"></path>
	<path class="st0" d="M492.951,116.484l-0.07,0.035v-0.179l-84.449,43.465c-1.867,10.442-4.641,20.562-8.086,30.355
		c-0.898,2.442-1.805,4.887-2.816,7.309l0.156-0.082c-0.031,0.074-0.054,0.149-0.082,0.223l43.774-22.555l19.695-10.062v247.18
		l-78.824,40.59l-36.664,18.797V362.703l0.121-81.786c-0.039,0.047-0.082,0.09-0.121,0.137v-0.242
		c-10.832,12.558-21.801,23.527-31.875,32.839V422.16l-0.074,49.446l-115.414-59.434v-98.52
		c-8.523-7.878-17.688-17.015-26.867-27.222c-1.637-1.871-3.293-3.742-4.848-5.617v0.179c-0.054-0.062-0.106-0.117-0.16-0.179
		v131.359l-78.84,40.621l-36.582,18.766V224.379l61.539-31.734c-2.969-8.102-5.402-16.508-7.336-25.066
		c-0.192-0.926-0.489-1.883-0.661-2.805l-0.034,0.019c-0.012-0.054-0.028-0.106-0.039-0.16l-69.406,35.805l-15.938,8.211v295.144
		L34.986,512l15.938-8.207l131.359-67.679l131.426,67.679L329.646,512l15.938-8.207l147.297-75.89V213.554L492.951,116.484z" style="fill: rgb(75, 75, 75);"></path>
</g>
</svg>
