<!--?xml version="1.0" encoding="utf-8"?-->
<!-- Generator: Adobe Illustrator 18.1.1, SVG Export Plug-In . SVG Version: 6.00 Build 0)  -->

<svg version="1.1" id="_x31_0" xmlns="http://www.w3.org/2000/svg" xmlns:xlink="http://www.w3.org/1999/xlink" x="0px" y="0px" viewBox="0 0 512 512" style="width: 256px; height: 256px; opacity: 1;" xml:space="preserve">
<style type="text/css">
	.st0{fill:#374149;}
</style>
<g>
	<path class="st0" d="M218.937,152.377c1.774,2.843,5.84,3.242,8.016,0.695c4.301-5.039,8.98-9.754,14-14.086
		c2.535-2.187,2.113-6.246-0.734-8.007l-38.02-23.497c-4.527-2.797-9.73,2.426-6.918,6.946L218.937,152.377z" style="fill: rgb(75, 75, 75);"></path>
	<path class="st0" d="M426.793,152.63c2.183,2.535,6.242,2.11,8.004-0.734l23.496-38.019c2.797-4.528-2.426-9.73-6.942-6.918
		l-37.95,23.657c-2.843,1.773-3.246,5.839-0.699,8.015C417.742,142.931,422.461,147.611,426.793,152.63z" style="fill: rgb(75, 75, 75);"></path>
	<path class="st0" d="M316.906,107.373c3.352-0.262,6.73-0.398,10.145-0.398c3.23,0,6.422,0.113,9.586,0.343
		c3.367,0.246,5.981-2.87,5.203-6.156l-10.27-43.504c-1.222-5.179-8.602-5.16-9.801,0.023l-10.09,43.551
		C310.914,104.521,313.539,107.634,316.906,107.373z" style="fill: rgb(75, 75, 75);"></path>
	<path class="st0" d="M435.153,325.103c-1.774-2.84-5.828-3.242-8.008-0.703c-4.328,5.039-9.019,9.754-14.05,14.102
		c-2.531,2.188-2.11,6.25,0.738,8.008l38.078,23.516c4.527,2.797,9.73-2.43,6.914-6.942L435.153,325.103z" style="fill: rgb(75, 75, 75);"></path>
	<path class="st0" d="M508.102,233.486l-43.547-10.094c-3.286-0.762-6.39,1.856-6.141,5.219c0.254,3.332,0.387,6.71,0.387,10.117
		c0,3.238-0.114,6.446-0.344,9.629c-0.242,3.367,2.871,5.981,6.156,5.203l43.512-10.273
		C513.301,242.064,513.289,234.689,508.102,233.486z" style="fill: rgb(75, 75, 75);"></path>
	<path class="st0" d="M327.031,140.846c-44.382,0-81.82,29.546-93.816,70.078c5.305,7.699,9.66,16.035,13.004,24.938
		c16.262,0.493,31.613,4.692,45.234,11.778c1.371,0.718,2.679,1.539,4.015,2.313c1.242,0.718,2.516,1.386,3.723,2.152
		c9.378,5.961,17.73,13.414,24.843,21.934c0.766,0.922,1.586,1.797,2.321,2.742c0.144,0.187,0.27,0.39,0.414,0.578
		c10.996,14.371,18.41,31.622,20.844,50.426c3.094,1.266,6.058,2.652,8.902,4.293c39.649-12.5,68.375-49.558,68.375-93.313
		C424.891,184.658,381.074,140.846,327.031,140.846z" style="fill: rgb(75, 75, 75);"></path>
	<path class="st0" d="M342.5,375.576c0.379-3.031-2.148-5.746-5.304-5.492c-1.008,0.062-1.958,0.125-2.969,0.125
		c-3.723-1.894-7.762-3.282-12.055-4.106l-18.625-3.535l0.629-18.938c0.066-1.074,0.066-1.703,0.066-2.336
		c0-2.527-0.129-5.05-0.446-7.511c-3.722-30.242-29.546-53.794-60.859-53.794c-1.515,0-3.031,0.066-4.546,0.192
		c-1.703,0.125-3.406,0.312-5.051,0.566l-20.957,3.285l-4.168-20.774c-2.149-10.859-6.629-20.894-12.879-29.484
		c-2.398-3.344-5.113-6.438-8.019-9.34c-13.891-13.89-33.02-22.289-53.727-22.289c-41.984,0-76.14,34.156-76.14,76.141
		c0,9.976,1.894,19.695,5.683,28.914l8.562,20.754l1.387,3.434l-25.481,5.738C19.57,343.564,0,368.126,0,396.916
		c0,33.774,27.523,61.301,61.301,61.301h252.094c25.633,0,46.465-20.832,46.465-46.465
		C359.86,397.291,353.168,384.099,342.5,375.576z" style="fill: rgb(75, 75, 75);"></path>
</g>
</svg>
